<svg width="276" height="79" viewBox="0 0 276 79" fill="none" xmlns="http://www.w3.org/2000/svg">
  <g clip-path="url(#clip0_1_33)">
    <mask id="mask0_1_33" style="mask-type:luminance" maskUnits="userSpaceOnUse" x="0" y="0" width="276" height="79">
      <path d="M0 0H276V79H0V0Z" fill="white"/>
    </mask>
    <g mask="url(#mask0_1_33)">
      <path d="M217.474 76.726C199.724 76.726 195.998 66.7 195.998 58.29C195.998 49.214 199.895 43.62 204.495 41.284C206.583 36.51 208.071 30.401 209.17 25.39C209.758 22.71 211.828 20.628 214.462 20.071L226.87 17.449C227.326 17.3521 227.791 17.3035 228.257 17.304C229.818 17.304 229.877 22.92 231.11 23.946C232.704 25.273 235.102 22.194 235.102 24.296V25.519C235.102 32.127 236.499 36.094 237.981 40.293C238.373 41.413 238.771 42.538 239.144 43.706C239.278 43.699 239.413 43.694 239.552 43.694H239.74C240.766 43.7271 241.771 43.9913 242.681 44.467C243.589 44.9422 244.378 45.6167 244.988 46.44L247.213 49.41C249.487 52.446 248.95 56.786 246.006 59.15C244.379 60.457 242.142 62.413 239.773 64.486L237.974 66.054C234.139 72.86 226.765 76.726 217.474 76.726ZM56.102 76.726C55.077 76.7241 54.0658 76.4903 53.144 76.042C52.2233 75.5942 51.4164 74.9432 50.784 74.138C50.1408 73.3226 49.684 72.3762 49.4456 71.3654C49.2072 70.3546 49.193 69.3039 49.404 68.287L58.474 24.593C59.147 21.361 61.936 19.051 65.171 19.051H77.492C78.706 19.051 79.897 19.38 80.939 20.001C82.854 19.365 84.753 19.051 86.649 19.051C94.185 19.051 99.655 24.342 99.655 31.634C99.655 38.274 94.583 45.44 86.393 45.44C84.844 45.44 82.719 45.149 80.78 43.888L75.122 71.182C74.451 74.412 71.658 76.722 68.424 76.722H56.102V76.726Z" fill="url(#paint0_linear_1_33)" fill-opacity="0.5"/>
      <path d="M102.991 76.726C92.225 76.726 85.534 70.398 85.534 60.21C85.534 56.461 87.192 48.563 89.717 36.938L90.321 34.156L90.166 33.972C89.5232 33.1649 89.0636 32.2277 88.8191 31.2253C88.5746 30.223 88.551 29.1794 88.75 28.167L89.434 24.672C89.64 23.5925 90.0992 22.5774 90.774 21.71C91.4501 20.8408 92.3222 20.1439 93.319 19.676L94.847 12.499C95.458 9.624 97.767 7.45 100.619 7.057L113.374 6.995C113.681 6.952 113.067 6.995 113.374 6.995C115.271 6.995 114.723 8.252 116.027 9.702C117.545 11.385 121.366 11.51 120.886 13.742C120.885 13.752 120.372 16.122 119.587 19.844C120.41 20.2827 121.136 20.885 121.718 21.614C122.361 22.4199 122.821 23.356 123.065 24.3574C123.31 25.3588 123.334 26.4014 123.136 27.413L122.454 30.91C121.84 34.047 119.222 36.345 116.127 36.519C115.077 41.4378 114.049 46.3612 113.043 51.289L113.365 51.003C114.254 50.1939 115.16 49.4047 116.084 48.636C117.29 47.6458 118.802 47.104 120.362 47.103H123.27C126.037 47.103 128.533 48.808 129.592 51.419C130.11 52.6959 130.246 54.0958 129.982 55.4483C129.719 56.8009 129.068 58.0477 128.109 59.037C127.569 59.592 126.91 60.301 126.163 61.103C118.504 69.335 110.966 76.726 102.991 76.726Z" fill="url(#paint1_linear_1_33)" fill-opacity="0.5"/>
      <path d="M152.873 76.726C145.331 76.726 139.678 73.515 137.018 68.116L136.38 71.186C135.711 74.418 132.92 76.726 129.686 76.726H117.364C116.339 76.7242 115.328 76.49 114.406 76.0408C113.485 75.5917 112.677 74.9394 112.044 74.133C111.401 73.3167 110.944 72.3693 110.707 71.3576C110.469 70.3458 110.456 69.2943 110.669 68.277L113.986 43.168L121.794 8.563C122.397 5.678 125.991 3.78 128.854 3.383L141.516 1.637C142.609 1.4906 143.721 1.61243 144.757 1.992C145.791 2.37087 146.717 2.99628 147.455 3.814C148.204 4.64544 148.746 5.64175 149.037 6.722C149.328 7.80136 149.359 8.93427 149.128 10.028L146.682 21.691C150.23 19.049 150.939 19.049 152.53 19.049C152.556 19.049 161.136 19.788 161.546 20.798C162.68 23.595 167.439 21.057 168.319 23.998C169.2 26.936 168.096 30.118 165.603 31.835L158.691 36.598C161.567 39.843 163.401 44.12 163.401 48.587C163.401 48.934 163.387 49.282 163.366 49.634C163.735 49.294 164.118 48.956 164.513 48.634C165.719 47.6439 167.231 47.1022 168.791 47.101H171.698C174.467 47.101 176.961 48.807 178.02 51.417C178.54 52.6935 178.676 54.0937 178.413 55.4466C178.15 56.7994 177.498 58.0464 176.538 59.035C175.862 59.725 174.875 60.873 173.83 62.087C168.517 68.265 161.237 76.726 152.873 76.726Z" fill="url(#paint2_linear_1_33)" fill-opacity="0.5"/>
      <path d="M178.631 77.252C165.402 77.252 158.693 65.332 158.693 51.182C158.693 44.724 157.442 40.732 158.693 36.598C162.047 25.524 173.68 19.051 184.08 19.051C192.015 19.051 196.469 23.817 198.853 31.257C199.777 30.63 205.991 28.576 207.29 28.038C208.227 27.6491 209.24 27.4777 210.254 27.5366C211.267 27.5955 212.253 27.8831 213.139 28.378C214.035 28.8799 214.809 29.5738 215.405 30.4098C216.002 31.2459 216.406 32.2034 216.589 33.214L216.931 35.052C217.114 36.0371 217.087 37.0499 216.851 38.0237C216.615 38.9974 216.175 39.9102 215.561 40.702C212.822 44.222 208.877 47.189 204.366 49.188C201.078 68.431 189.076 77.252 178.629 77.252H178.631ZM248.878 76.726C238.114 76.726 231.423 70.398 231.423 60.21C231.423 56.46 233.079 48.563 235.606 36.938L236.209 34.156L236.054 33.972C235.411 33.165 234.951 32.2279 234.706 31.2255C234.461 30.2232 234.437 29.1795 234.636 28.167L235.321 24.672C235.527 23.5926 235.986 22.5775 236.661 21.71C237.337 20.8407 238.209 20.1438 239.206 19.676L240.734 12.499C241.345 9.624 243.655 7.45 246.506 7.057L259.171 5.31C260.267 5.16298 261.381 5.28593 262.419 5.66814C263.456 6.05035 264.384 6.68024 265.122 7.503C265.871 8.33817 266.412 9.33942 266.698 10.4243C266.985 11.5092 267.01 12.6466 266.771 13.743C266.771 13.751 266.259 16.123 265.472 19.844C266.296 20.2819 267.021 20.8843 267.603 21.614C268.247 22.4199 268.707 23.3562 268.953 24.358C269.198 25.3592 269.222 26.4018 269.022 27.413L268.341 30.91C267.727 34.047 265.108 36.345 262.012 36.519C260.964 41.4381 259.936 46.3614 258.929 51.289L259.25 51.003C260.197 50.153 261.113 49.337 261.971 48.636C263.176 47.6461 264.687 47.1044 266.247 47.103H269.155C271.922 47.103 274.42 48.808 275.479 51.419C275.998 52.6956 276.135 54.0959 275.871 55.4487C275.608 56.8015 274.956 58.0484 273.996 59.037C273.454 59.592 272.795 60.301 272.05 61.103C264.391 69.335 256.852 76.726 248.878 76.726ZM23.158 79C12.718 79 5.70599 71.728 5.70599 60.91C5.70599 36.596 17.191 20.887 34.969 20.887C36.169 20.887 37.384 21.041 38.571 21.342C39.4062 20.984 40.3053 20.7993 41.214 20.799L52.109 22.723C54.172 22.723 57.553 21.751 58.852 23.389C59.4949 24.2046 59.9516 25.1509 60.19 26.1617C60.4284 27.1724 60.4427 28.2231 60.232 29.24L55.298 53.023C55.407 52.925 55.508 52.833 55.608 52.748C56.554 51.9 57.472 51.082 58.328 50.383C59.5335 49.3928 61.0449 48.8507 62.605 48.849H65.514C68.281 48.849 70.777 50.553 71.836 53.165C72.3558 54.4418 72.4922 55.8424 72.2287 57.1955C71.9651 58.5486 71.313 59.7956 70.352 60.784C69.812 61.337 69.153 62.048 68.407 62.85C60.746 71.083 53.209 78.475 45.235 78.475C40.195 78.475 36.611 77.178 34.064 75.383C30.053 78.248 26.149 79 23.158 79Z" fill="url(#paint3_linear_1_33)" fill-opacity="0.5"/>
      <path d="M213.483 75.155C195.732 75.155 192.006 65.125 192.006 56.715C192.006 47.64 195.901 42.045 200.504 39.709C202.591 34.937 204.08 28.829 205.178 23.815C205.765 21.135 207.835 19.053 210.471 18.496L222.877 15.876C223.875 15.6677 224.906 15.6878 225.895 15.9345C226.884 16.1813 227.804 16.6484 228.587 17.301C229.38 17.9652 230.017 18.7954 230.454 19.733C230.89 20.669 231.114 21.69 231.11 22.723V23.943C231.11 30.553 232.508 34.52 233.989 38.72C234.383 39.837 234.779 40.963 235.149 42.133C235.348 42.12 235.549 42.117 235.749 42.123C236.774 42.155 237.779 42.4182 238.689 42.893C239.597 43.3674 240.386 44.0417 240.996 44.865L243.222 47.836C245.495 50.873 244.959 55.212 242.014 57.576C240.387 58.884 238.15 60.839 235.782 62.911L233.984 64.481C230.148 71.287 222.772 75.155 213.483 75.155ZM52.109 75.155C51.0834 75.1516 50.0719 74.9164 49.15 74.467C48.2294 74.0182 47.4225 73.3665 46.79 72.561C46.148 71.7454 45.6921 70.7993 45.454 69.7889C45.216 68.7786 45.2017 67.7285 45.412 66.712L54.482 23.018C55.153 19.789 57.944 17.478 61.179 17.478H73.5C74.7137 17.4783 75.9048 17.8058 76.948 18.426C78.863 17.79 80.76 17.478 82.658 17.478C90.191 17.478 95.662 22.768 95.662 30.059C95.662 36.699 90.591 43.867 82.399 43.867C80.852 43.867 78.726 43.574 76.787 42.313L71.127 69.606C70.455 72.838 67.666 75.15 64.431 75.15H52.11L52.109 75.155Z" fill="url(#paint4_linear_1_33)"/>
      <path d="M98.998 75.155C88.23 75.155 74.453 67.076 74.453 56.887C74.453 54.817 71.637 47.833 74.453 43.78C76.735 40.494 84.596 40.568 85.723 35.363L86.329 32.581C85.6324 31.7658 85.129 30.8037 84.8563 29.7667C84.5836 28.7297 84.5486 27.6444 84.754 26.592L85.439 23.099C85.6453 22.0194 86.1049 21.0043 86.78 20.137C87.4564 19.2677 88.3288 18.5708 89.326 18.103L90.854 10.928C91.464 8.051 93.773 5.875 96.626 5.484L109.291 3.735C110.387 3.5887 111.503 3.71228 112.541 4.095C113.578 4.47712 114.505 5.10711 115.242 5.93C115.991 6.76526 116.531 7.76659 116.818 8.85149C117.104 9.93638 117.128 11.0738 116.889 12.17C116.451 14.202 116.017 16.235 115.589 18.27C116.413 18.7079 117.138 19.3095 117.721 20.038C118.364 20.8442 118.825 21.7807 119.07 22.7826C119.315 23.7845 119.34 24.8277 119.142 25.84L118.457 29.337C117.847 32.474 115.228 34.77 112.13 34.946C111.082 39.865 110.055 44.7884 109.049 49.716L109.37 49.428C110.317 48.58 111.233 47.762 112.089 47.062C113.296 46.073 114.807 45.5311 116.367 45.528H119.275C122.044 45.528 124.54 47.233 125.599 49.846C126.117 51.123 126.252 52.5229 125.989 53.8754C125.725 55.2279 125.074 56.4747 124.115 57.464C123.574 58.019 122.917 58.726 122.166 59.53C114.509 67.76 106.971 75.155 99 75.155H98.998Z" fill="url(#paint5_linear_1_33)"/>
      <path d="M148.881 75.155C141.34 75.155 135.685 71.942 133.025 66.544L132.389 69.611C131.718 72.845 128.927 75.155 125.692 75.155H113.372C112.347 75.1516 111.336 74.9164 110.414 74.467C109.493 74.0177 108.685 73.3657 108.051 72.56C107.408 71.7437 106.951 70.7963 106.714 69.7845C106.477 68.7727 106.464 67.7212 106.677 66.704L109.993 41.595L117.802 6.99C118.406 4.105 121.999 2.205 124.862 1.808L137.526 0.0619997C138.618 -0.0824814 139.729 0.0402201 140.764 0.419574C141.798 0.798928 142.725 1.42361 143.465 2.24C144.214 3.07112 144.756 4.06752 145.047 5.14794C145.338 6.22836 145.369 7.3622 145.138 8.457L142.689 20.117C146.237 17.477 146.948 17.477 148.54 17.477H157.779C160.789 17.477 163.445 19.485 164.325 22.422C165.205 25.364 164.103 28.545 161.608 30.26L154.7 35.025C157.574 38.269 159.406 42.547 159.406 47.014C159.406 47.36 159.395 47.711 159.371 48.061C159.742 47.718 160.121 47.383 160.518 47.06C161.725 46.071 163.236 45.5291 164.796 45.526H167.703C170.47 45.526 172.967 47.232 174.027 49.844C174.546 51.1207 174.682 52.521 174.419 53.8739C174.155 55.2267 173.503 56.4735 172.543 57.462C171.867 58.151 170.882 59.298 169.835 60.512C164.524 66.693 157.242 75.155 148.881 75.155Z" fill="url(#paint6_linear_1_33)"/>
      <path d="M174.639 75.677C161.408 75.677 154.701 63.757 154.701 49.607C154.701 43.15 153.449 39.157 154.701 35.027C158.053 23.949 169.685 17.477 180.087 17.477C188.022 17.477 197.6 20.847 199.984 28.289C201.024 27.569 202.135 26.959 203.3 26.467C204.237 26.0772 205.25 25.9052 206.263 25.9641C207.276 26.023 208.263 26.3112 209.148 26.807C210.043 27.3099 210.815 28.0038 211.411 28.8393C212.007 29.6748 212.412 30.6314 212.596 31.641L212.936 33.479C213.12 34.4638 213.093 35.4764 212.858 36.4502C212.622 37.424 212.183 38.3369 211.57 39.129C208.829 42.649 204.885 45.616 200.374 47.619C197.085 66.859 185.084 75.677 174.637 75.677H174.639ZM244.886 75.155C234.119 75.155 227.431 68.825 227.431 58.635C227.431 54.888 229.087 46.988 231.612 35.363L232.216 32.581C231.519 31.7663 231.015 30.8043 230.742 29.7671C230.469 28.7299 230.435 27.6444 230.641 26.592L231.328 23.099C231.534 22.0181 231.994 21.0015 232.669 20.133C233.345 19.2644 234.217 18.5687 235.214 18.103L236.742 10.928C237.353 8.051 239.659 5.875 242.514 5.484L255.178 3.735C256.274 3.5887 257.39 3.71228 258.428 4.095C259.465 4.47712 260.392 5.10711 261.129 5.93C261.877 6.76585 262.417 7.76714 262.704 8.85179C262.99 9.93644 263.016 11.0736 262.778 12.17C262.339 14.202 261.906 16.235 261.477 18.27C262.301 18.7082 263.026 19.3098 263.609 20.038C264.253 20.8436 264.714 21.78 264.959 22.7818C265.204 23.7837 265.228 24.827 265.029 25.839L264.346 29.337C263.734 32.474 261.117 34.77 258.019 34.946C256.97 39.8645 255.942 44.7876 254.936 49.715L255.259 49.428C256.148 48.6202 257.053 47.8314 257.975 47.062C259.182 46.073 260.693 45.5311 262.253 45.528H265.164C267.932 45.528 270.427 47.233 271.486 49.846C272.006 51.1225 272.142 52.5227 271.879 53.8756C271.616 55.2284 270.964 56.4754 270.004 57.464C269.462 58.019 268.805 58.726 268.055 59.53C260.396 67.761 252.857 75.155 244.886 75.155ZM17.456 75.677C7.013 75.677 0 68.409 0 57.587C0 33.277 11.489 17.565 29.265 17.565C30.467 17.565 31.68 17.722 32.87 18.019C33.7046 17.663 34.6026 17.4793 35.51 17.479H47.83C48.8547 17.4821 49.8656 17.7166 50.787 18.165C51.7071 18.6123 52.514 19.2622 53.147 20.066C53.79 20.8815 54.2468 21.8278 54.4852 22.8386C54.7236 23.8494 54.7379 24.9001 54.527 25.917L49.597 49.703L49.904 49.426C50.851 48.578 51.767 47.761 52.623 47.06C53.8296 46.071 55.3408 45.5291 56.901 45.526H59.809C62.578 45.526 65.074 47.232 66.133 49.844C66.6522 51.1207 66.7884 52.5209 66.5251 53.8737C66.2617 55.2265 65.6102 56.4733 64.65 57.462C64.108 58.017 63.45 58.724 62.7 59.528C55.041 67.761 47.503 75.156 39.53 75.156C34.493 75.156 30.905 73.851 28.359 72.062C24.349 74.928 20.446 75.677 17.456 75.677Z" fill="url(#paint7_linear_1_33)"/>
      <path d="M35.507 24.47L34.995 26.74C33.456 25.43 31.317 24.555 29.261 24.555C12.149 24.555 6.841 42.559 6.841 57.588C6.841 62.747 9.239 68.688 17.451 68.688C22.671 68.688 26.521 65.105 29.089 61.52C30.201 66.065 33.967 68.163 39.529 68.163C46.201 68.163 55.873 56.542 59.807 52.52H56.9C53.476 55.319 49.026 60.212 45.605 60.212C42.185 60.212 41.327 58.815 41.327 56.89C41.327 56.105 41.499 55.144 41.67 54.184L47.828 24.473H35.508V24.469L35.507 24.47ZM29.946 29.45C31.143 29.45 32.77 29.799 34.138 31.025L29.348 54.182C29.1076 55.1301 28.9355 56.0943 28.833 57.067C27.208 59.509 25.325 61.434 23.358 61.434C21.219 61.434 18.395 60.473 18.395 55.23C18.395 43.345 23.529 29.452 29.946 29.452V29.45Z" fill="url(#paint8_linear_1_33)"/>
      <path d="M61.177 24.47L52.107 68.163H64.43L71.532 33.908C73.498 32.071 74.866 31.108 77.432 31.108C80.002 31.108 77.605 36.878 82.396 36.878C86.587 36.878 88.813 33.12 88.813 30.061C88.813 26.74 86.503 24.469 82.654 24.469C79.058 24.469 75.634 26.393 72.556 28.84L73.498 24.47H61.178H61.177ZM97.542 12.412L94.975 24.469H92.153L91.468 27.966H94.292C92.836 35.48 88.389 54.006 88.389 58.636C88.389 65.19 92.409 68.163 98.998 68.163C105.67 68.163 115.34 56.542 119.277 52.52H116.368C112.946 55.319 108.496 60.21 105.073 60.21C101.651 60.21 100.795 58.9 100.795 56.889C100.795 56.452 100.709 55.579 106.614 27.966H111.747L112.43 24.469H107.295C108.92 16.604 110.203 10.662 110.203 10.662L97.542 12.412Z" fill="url(#paint9_linear_1_33)"/>
      <path d="M148.54 24.47C148.54 24.382 138.443 32.335 132.026 37.578L138.443 6.991L125.78 8.74L113.374 68.163H125.694L130.574 44.656C132.37 43.433 133.908 42.732 136.047 42.732C138.359 42.732 139.985 44.742 139.985 47.889C139.985 48.585 139.899 49.375 139.728 50.159L138.788 54.182C138.394 55.6947 138.192 57.2509 138.186 58.814C138.186 65.189 142.294 68.164 148.881 68.164C155.557 68.164 163.771 56.542 167.706 52.519H164.8C161.377 55.319 158.383 60.21 154.958 60.21C151.622 60.21 150.68 58.9 150.68 56.976C150.68 56.102 150.853 55.139 151.108 54.18L152.305 49.2C152.476 48.4838 152.562 47.7502 152.562 47.014C152.562 41.244 147.256 36.177 142.637 36.177C141.866 36.177 141.179 36.267 140.412 36.44L157.779 24.466L148.54 24.47Z" fill="url(#paint10_linear_1_33)"/>
      <path d="M184.049 23.597C172.241 23.597 161.546 32.857 161.546 54.355C161.546 64.755 165.483 68.687 174.639 68.687C183.195 68.687 192.519 60.037 194.145 42.471C199.106 41.073 203.557 38.19 206.208 34.784L205.868 32.946C202.701 34.256 200.906 37.228 196.885 37.228C195.686 37.228 194.916 36.968 194.402 36.443C194.23 30.061 192.177 23.597 184.049 23.597ZM178.658 60.21C175.322 60.21 172.926 58.814 172.926 53.57C172.926 46.58 176.348 28.75 184.39 28.75C186.786 28.75 187.727 30.413 187.985 33.295C185.674 34.169 184.221 36.879 184.221 39.412C184.221 41.512 185.332 43.345 187.815 43.345C186.788 51.822 183.878 60.21 178.658 60.21ZM211.858 25.343C210.402 31.983 208.435 39.763 205.354 45.443C201.93 45.705 198.851 49.723 198.851 56.715C198.851 65.278 203.641 68.163 213.483 68.163C221.44 68.163 226.317 64.843 228.542 60.037C231.966 57.067 235.388 54.008 237.783 52.083L235.557 49.113C234.531 50.335 232.392 52.609 229.996 54.793C230.082 54.182 230.082 53.573 230.082 52.956C230.082 42.732 224.266 38.363 224.266 23.944V22.723L211.858 25.343ZM211.944 50.773C211.944 48.15 211.173 46.583 209.12 45.88C211.004 41.511 212.201 35.916 213.571 31.636C213.743 42.559 217.593 47.191 217.593 52.609C217.593 59.338 213.401 63.006 210.491 63.006C205.958 63.006 203.217 60.736 203.217 55.578C204.247 56.104 205.27 56.368 206.3 56.368C209.291 56.368 211.944 54.093 211.944 50.773Z" fill="url(#paint11_linear_1_33)"/>
      <path d="M243.43 12.412L240.863 24.469H238.041L237.357 27.966H240.18C238.724 35.48 234.276 54.006 234.276 58.636C234.276 65.19 238.297 68.163 244.884 68.163C251.558 68.163 261.229 56.542 265.165 52.52H262.255C258.833 55.319 254.384 60.21 250.962 60.21C247.539 60.21 246.684 58.9 246.684 56.889C246.684 56.452 246.597 55.579 252.502 27.966H257.636L258.319 24.469H253.183C254.81 16.604 256.094 10.662 256.094 10.662L243.43 12.412Z" fill="url(#paint12_linear_1_33)"/>
    </g>
  </g>
  <defs>
    <linearGradient id="paint0_linear_1_33" x1="148.938" y1="17.304" x2="148.938" y2="76.726" gradientUnits="userSpaceOnUse">
      <stop stop-color="#4F4F4F"/>
    </linearGradient>
    <linearGradient id="paint1_linear_1_33" x1="107.825" y1="6.976" x2="107.825" y2="76.726" gradientUnits="userSpaceOnUse">
      <stop stop-color="#4F4F4F"/>
    </linearGradient>
    <linearGradient id="paint2_linear_1_33" x1="144.53" y1="1.577" x2="144.53" y2="76.726" gradientUnits="userSpaceOnUse">
      <stop stop-color="#4F4F4F"/>
    </linearGradient>
    <linearGradient id="paint3_linear_1_33" x1="140.854" y1="5.25" x2="140.854" y2="79" gradientUnits="userSpaceOnUse">
      <stop stop-color="#4F4F4F"/>
    </linearGradient>
    <linearGradient id="paint4_linear_1_33" x1="144.946" y1="15.733" x2="144.946" y2="75.155" gradientUnits="userSpaceOnUse">
      <stop stop-color="#1F1E55"/>
    </linearGradient>
    <linearGradient id="paint5_linear_1_33" x1="99.661" y1="3.676" x2="99.661" y2="75.155" gradientUnits="userSpaceOnUse">
      <stop stop-color="#1F1E55"/>
    </linearGradient>
    <linearGradient id="paint6_linear_1_33" x1="140.538" y1="0.00299965" x2="140.538" y2="75.155" gradientUnits="userSpaceOnUse">
      <stop stop-color="#1F1E55"/>
    </linearGradient>
    <linearGradient id="paint7_linear_1_33" x1="136.004" y1="3.676" x2="136.004" y2="75.677" gradientUnits="userSpaceOnUse">
      <stop stop-color="#1F1E55"/>
    </linearGradient>
    <linearGradient id="paint8_linear_1_33" x1="33.324" y1="24.469" x2="33.324" y2="68.687" gradientUnits="userSpaceOnUse">
      <stop stop-color="#C042FF"/>
    </linearGradient>
    <linearGradient id="paint9_linear_1_33" x1="85.692" y1="10.662" x2="85.692" y2="68.163" gradientUnits="userSpaceOnUse">
      <stop stop-color="#C042FF"/>
    </linearGradient>
    <linearGradient id="paint10_linear_1_33" x1="140.54" y1="6.991" x2="140.54" y2="68.163" gradientUnits="userSpaceOnUse">
      <stop stop-color="#F000EC"/>
    </linearGradient>
    <linearGradient id="paint11_linear_1_33" x1="199.664" y1="22.723" x2="199.664" y2="68.687" gradientUnits="userSpaceOnUse">
      <stop stop-color="#F000EC"/>
    </linearGradient>
    <linearGradient id="paint12_linear_1_33" x1="249.72" y1="10.662" x2="249.72" y2="68.163" gradientUnits="userSpaceOnUse">
      <stop stop-color="#F000EC"/>
    </linearGradient>
    <clipPath id="clip0_1_33">
      <rect width="276" height="79" fill="white"/>
    </clipPath>
  </defs>
</svg>
