<svg width="276" height="79" fill="none" xmlns="http://www.w3.org/2000/svg">
  <g clip-path="url(#clip0)">
    <path
      d="M217.474 76.726c-17.75 0-21.476-10.026-21.476-18.436 0-9.076 3.897-14.67 8.497-17.006 2.088-4.774 3.576-10.883 4.675-15.894.588-2.68 2.658-4.762 5.292-5.319l12.408-2.622a6.64 6.64 0 011.387-.145c1.561 0 1.62 5.616 2.853 6.642 1.594 1.327 3.992-1.752 3.992.35v1.223c0 6.608 1.397 10.575 2.879 14.774.392 1.12.79 2.245 1.163 3.413.134-.007.269-.012.408-.012h.188a6.821 6.821 0 012.941.773 6.791 6.791 0 012.307 1.973l2.225 2.97c2.274 3.036 1.737 7.376-1.207 9.74-1.627 1.307-3.864 3.263-6.233 5.336l-1.799 1.568c-3.835 6.806-11.209 10.672-20.5 10.672zm-161.372 0a6.792 6.792 0 01-2.958-.684 6.761 6.761 0 01-2.36-1.904 7.114 7.114 0 01-1.38-5.851l9.07-43.694c.673-3.232 3.462-5.542 6.697-5.542h12.321c1.214 0 2.405.329 3.447.95 1.915-.636 3.814-.95 5.71-.95 7.536 0 13.006 5.291 13.006 12.583 0 6.64-5.072 13.806-13.262 13.806-1.549 0-3.674-.291-5.613-1.552l-5.658 27.294c-.671 3.23-3.464 5.54-6.698 5.54H56.102v.004z"
      fill="#B2B2B2"/>
    <path
      d="M217.474 76.726c-17.75 0-21.476-10.026-21.476-18.436 0-9.076 3.897-14.67 8.497-17.006 2.088-4.774 3.576-10.883 4.675-15.894.588-2.68 2.658-4.762 5.292-5.319l12.408-2.622a6.64 6.64 0 011.387-.145c1.561 0 1.62 5.616 2.853 6.642 1.594 1.327 3.992-1.752 3.992.35v1.223c0 6.608 1.397 10.575 2.879 14.774.392 1.12.79 2.245 1.163 3.413.134-.007.269-.012.408-.012h.188a6.821 6.821 0 012.941.773 6.791 6.791 0 012.307 1.973l2.225 2.97c2.274 3.036 1.737 7.376-1.207 9.74-1.627 1.307-3.864 3.263-6.233 5.336l-1.799 1.568c-3.835 6.806-11.209 10.672-20.5 10.672zm-161.372 0a6.792 6.792 0 01-2.958-.684 6.761 6.761 0 01-2.36-1.904 7.114 7.114 0 01-1.38-5.851l9.07-43.694c.673-3.232 3.462-5.542 6.697-5.542h12.321c1.214 0 2.405.329 3.447.95 1.915-.636 3.814-.95 5.71-.95 7.536 0 13.006 5.291 13.006 12.583 0 6.64-5.072 13.806-13.262 13.806-1.549 0-3.674-.291-5.613-1.552l-5.658 27.294c-.671 3.23-3.464 5.54-6.698 5.54H56.102v.004z"
      fill="url(#paint0_linear)"/>
    <path
      d="M102.991 76.726c-10.766 0-17.457-6.328-17.457-16.516 0-3.749 1.658-11.647 4.183-23.272l.604-2.782-.155-.184a7.115 7.115 0 01-1.416-5.805l.684-3.495a6.944 6.944 0 011.34-2.962 6.984 6.984 0 012.545-2.034l1.528-7.177c.611-2.875 2.92-5.049 5.772-5.442l12.755-.062c.307-.043-.307 0 0 0 1.897 0 1.349 1.257 2.653 2.707 1.518 1.683 5.339 1.808 4.859 4.04-.001.01-.514 2.38-1.299 6.102a6.848 6.848 0 012.131 1.77 7.107 7.107 0 011.418 5.799l-.682 3.497c-.614 3.137-3.232 5.435-6.327 5.609a1713.016 1713.016 0 00-3.084 14.77l.322-.286a80.715 80.715 0 012.719-2.367 6.748 6.748 0 014.278-1.533h2.908c2.767 0 5.263 1.705 6.322 4.316a7.106 7.106 0 01-1.483 7.618c-.54.555-1.199 1.264-1.946 2.066-7.659 8.232-15.197 15.623-23.172 15.623z"
      fill="#B2B2B2"/>
    <path
      d="M102.991 76.726c-10.766 0-17.457-6.328-17.457-16.516 0-3.749 1.658-11.647 4.183-23.272l.604-2.782-.155-.184a7.115 7.115 0 01-1.416-5.805l.684-3.495a6.944 6.944 0 011.34-2.962 6.984 6.984 0 012.545-2.034l1.528-7.177c.611-2.875 2.92-5.049 5.772-5.442l12.755-.062c.307-.043-.307 0 0 0 1.897 0 1.349 1.257 2.653 2.707 1.518 1.683 5.339 1.808 4.859 4.04-.001.01-.514 2.38-1.299 6.102a6.848 6.848 0 012.131 1.77 7.107 7.107 0 011.418 5.799l-.682 3.497c-.614 3.137-3.232 5.435-6.327 5.609a1713.016 1713.016 0 00-3.084 14.77l.322-.286a80.715 80.715 0 012.719-2.367 6.748 6.748 0 014.278-1.533h2.908c2.767 0 5.263 1.705 6.322 4.316a7.106 7.106 0 01-1.483 7.618c-.54.555-1.199 1.264-1.946 2.066-7.659 8.232-15.197 15.623-23.172 15.623z"
      fill="url(#paint1_linear)"/>
    <path
      d="M152.873 76.726c-7.542 0-13.195-3.211-15.855-8.61l-.638 3.07c-.669 3.232-3.46 5.54-6.694 5.54h-12.322a6.778 6.778 0 01-5.32-2.593 7.11 7.11 0 01-1.375-5.856l3.317-25.109 7.808-34.605c.603-2.885 4.197-4.783 7.06-5.18l12.662-1.746a6.796 6.796 0 013.241.355 6.771 6.771 0 012.698 1.822 7.114 7.114 0 011.582 2.908 7.08 7.08 0 01.091 3.306l-2.446 11.663c3.548-2.642 4.257-2.642 5.848-2.642.026 0 8.606.739 9.016 1.749 1.134 2.797 5.893.259 6.773 3.2.881 2.938-.223 6.12-2.716 7.837l-6.912 4.763c2.876 3.245 4.71 7.522 4.71 11.989 0 .347-.014.695-.035 1.047.369-.34.752-.678 1.147-1a6.75 6.75 0 014.278-1.533h2.907c2.769 0 5.263 1.706 6.322 4.316a7.095 7.095 0 01-1.482 7.618c-.676.69-1.663 1.838-2.708 3.052-5.313 6.178-12.593 14.64-20.957 14.64z"
      fill="#B2B2B2"/>
    <path
      d="M152.873 76.726c-7.542 0-13.195-3.211-15.855-8.61l-.638 3.07c-.669 3.232-3.46 5.54-6.694 5.54h-12.322a6.778 6.778 0 01-5.32-2.593 7.11 7.11 0 01-1.375-5.856l3.317-25.109 7.808-34.605c.603-2.885 4.197-4.783 7.06-5.18l12.662-1.746a6.796 6.796 0 013.241.355 6.771 6.771 0 012.698 1.822 7.114 7.114 0 011.582 2.908 7.08 7.08 0 01.091 3.306l-2.446 11.663c3.548-2.642 4.257-2.642 5.848-2.642.026 0 8.606.739 9.016 1.749 1.134 2.797 5.893.259 6.773 3.2.881 2.938-.223 6.12-2.716 7.837l-6.912 4.763c2.876 3.245 4.71 7.522 4.71 11.989 0 .347-.014.695-.035 1.047.369-.34.752-.678 1.147-1a6.75 6.75 0 014.278-1.533h2.907c2.769 0 5.263 1.706 6.322 4.316a7.095 7.095 0 01-1.482 7.618c-.676.69-1.663 1.838-2.708 3.052-5.313 6.178-12.593 14.64-20.957 14.64z"
      fill="url(#paint2_linear)"/>
    <path
      d="M178.631 77.252c-13.229 0-19.938-11.92-19.938-26.07 0-6.458-1.251-10.45 0-14.584 3.354-11.074 14.987-17.547 25.387-17.547 7.935 0 12.389 4.766 14.773 12.206.924-.627 7.138-2.681 8.437-3.219a6.716 6.716 0 015.849.34 6.966 6.966 0 013.45 4.836l.342 1.838a7.1 7.1 0 01-1.37 5.65c-2.739 3.52-6.684 6.487-11.195 8.486-3.288 19.243-15.29 28.064-25.737 28.064h.002zm70.247-.526c-10.764 0-17.455-6.328-17.455-16.516 0-3.75 1.656-11.647 4.183-23.272l.603-2.782-.155-.184a7.118 7.118 0 01-1.418-5.805l.685-3.495a6.95 6.95 0 011.34-2.962 6.98 6.98 0 012.545-2.034l1.528-7.177c.611-2.875 2.921-5.049 5.772-5.442l12.665-1.747a6.783 6.783 0 015.951 2.193 7.084 7.084 0 011.649 6.24c0 .008-.512 2.38-1.299 6.101a6.815 6.815 0 012.131 1.77 7.107 7.107 0 011.35 2.744 7.077 7.077 0 01.069 3.055l-.681 3.497c-.614 3.137-3.233 5.435-6.329 5.609a1828.3 1828.3 0 00-3.083 14.77l.321-.286c.947-.85 1.863-1.666 2.721-2.367a6.747 6.747 0 014.276-1.533h2.908c2.767 0 5.265 1.705 6.324 4.316a7.096 7.096 0 01-1.483 7.618c-.542.555-1.201 1.264-1.946 2.066-7.659 8.232-15.198 15.623-23.172 15.623zM23.158 79c-10.44 0-17.452-7.272-17.452-18.09 0-24.314 11.485-40.023 29.263-40.023 1.2 0 2.415.154 3.602.455a6.715 6.715 0 012.643-.543l10.895 1.924c2.063 0 5.444-.972 6.743.666a7.118 7.118 0 011.38 5.851l-4.934 23.783c.109-.098.21-.19.31-.275.946-.848 1.864-1.666 2.72-2.365a6.75 6.75 0 014.277-1.534h2.909c2.767 0 5.263 1.704 6.322 4.316a7.093 7.093 0 01-1.484 7.619c-.54.553-1.199 1.264-1.945 2.066-7.661 8.233-15.198 15.625-23.172 15.625-5.04 0-8.624-1.297-11.171-3.092C30.053 78.248 26.149 79 23.158 79z"
      fill="#B2B2B2"/>
    <path
      d="M178.631 77.252c-13.229 0-19.938-11.92-19.938-26.07 0-6.458-1.251-10.45 0-14.584 3.354-11.074 14.987-17.547 25.387-17.547 7.935 0 12.389 4.766 14.773 12.206.924-.627 7.138-2.681 8.437-3.219a6.716 6.716 0 015.849.34 6.966 6.966 0 013.45 4.836l.342 1.838a7.1 7.1 0 01-1.37 5.65c-2.739 3.52-6.684 6.487-11.195 8.486-3.288 19.243-15.29 28.064-25.737 28.064h.002zm70.247-.526c-10.764 0-17.455-6.328-17.455-16.516 0-3.75 1.656-11.647 4.183-23.272l.603-2.782-.155-.184a7.118 7.118 0 01-1.418-5.805l.685-3.495a6.95 6.95 0 011.34-2.962 6.98 6.98 0 012.545-2.034l1.528-7.177c.611-2.875 2.921-5.049 5.772-5.442l12.665-1.747a6.783 6.783 0 015.951 2.193 7.084 7.084 0 011.649 6.24c0 .008-.512 2.38-1.299 6.101a6.815 6.815 0 012.131 1.77 7.107 7.107 0 011.35 2.744 7.077 7.077 0 01.069 3.055l-.681 3.497c-.614 3.137-3.233 5.435-6.329 5.609a1828.3 1828.3 0 00-3.083 14.77l.321-.286c.947-.85 1.863-1.666 2.721-2.367a6.747 6.747 0 014.276-1.533h2.908c2.767 0 5.265 1.705 6.324 4.316a7.096 7.096 0 01-1.483 7.618c-.542.555-1.201 1.264-1.946 2.066-7.659 8.232-15.198 15.623-23.172 15.623zM23.158 79c-10.44 0-17.452-7.272-17.452-18.09 0-24.314 11.485-40.023 29.263-40.023 1.2 0 2.415.154 3.602.455a6.715 6.715 0 012.643-.543l10.895 1.924c2.063 0 5.444-.972 6.743.666a7.118 7.118 0 011.38 5.851l-4.934 23.783c.109-.098.21-.19.31-.275.946-.848 1.864-1.666 2.72-2.365a6.75 6.75 0 014.277-1.534h2.909c2.767 0 5.263 1.704 6.322 4.316a7.093 7.093 0 01-1.484 7.619c-.54.553-1.199 1.264-1.945 2.066-7.661 8.233-15.198 15.625-23.172 15.625-5.04 0-8.624-1.297-11.171-3.092C30.053 78.248 26.149 79 23.158 79z"
      fill="url(#paint3_linear)"/>
    <path
      d="M213.483 75.155c-17.751 0-21.477-10.03-21.477-18.44 0-9.075 3.895-14.67 8.498-17.006 2.087-4.772 3.576-10.88 4.674-15.894.587-2.68 2.657-4.762 5.293-5.319l12.406-2.62a6.76 6.76 0 015.71 1.425 7.063 7.063 0 011.867 2.432c.436.936.66 1.957.656 2.99v1.22c0 6.61 1.398 10.577 2.879 14.777.394 1.117.79 2.243 1.16 3.413.199-.013.4-.016.6-.01a6.813 6.813 0 012.94.77 6.775 6.775 0 012.307 1.972l2.226 2.971c2.273 3.037 1.737 7.376-1.208 9.74-1.627 1.308-3.864 3.263-6.232 5.335l-1.798 1.57c-3.836 6.806-11.212 10.674-20.501 10.674zm-161.374 0a6.805 6.805 0 01-2.959-.688 6.775 6.775 0 01-2.36-1.906 7.123 7.123 0 01-1.378-5.849l9.07-43.694c.671-3.229 3.462-5.54 6.697-5.54H73.5a6.75 6.75 0 013.448.948c1.915-.636 3.812-.948 5.71-.948 7.533 0 13.004 5.29 13.004 12.581 0 6.64-5.071 13.808-13.263 13.808-1.547 0-3.673-.293-5.612-1.554l-5.66 27.293c-.672 3.232-3.461 5.544-6.696 5.544H52.11v.005z"
      fill="#fff"/>
    <path
      d="M213.483 75.155c-17.751 0-21.477-10.03-21.477-18.44 0-9.075 3.895-14.67 8.498-17.006 2.087-4.772 3.576-10.88 4.674-15.894.587-2.68 2.657-4.762 5.293-5.319l12.406-2.62a6.76 6.76 0 015.71 1.425 7.063 7.063 0 011.867 2.432c.436.936.66 1.957.656 2.99v1.22c0 6.61 1.398 10.577 2.879 14.777.394 1.117.79 2.243 1.16 3.413.199-.013.4-.016.6-.01a6.813 6.813 0 012.94.77 6.775 6.775 0 012.307 1.972l2.226 2.971c2.273 3.037 1.737 7.376-1.208 9.74-1.627 1.308-3.864 3.263-6.232 5.335l-1.798 1.57c-3.836 6.806-11.212 10.674-20.501 10.674zm-161.374 0a6.805 6.805 0 01-2.959-.688 6.775 6.775 0 01-2.36-1.906 7.123 7.123 0 01-1.378-5.849l9.07-43.694c.671-3.229 3.462-5.54 6.697-5.54H73.5a6.75 6.75 0 013.448.948c1.915-.636 3.812-.948 5.71-.948 7.533 0 13.004 5.29 13.004 12.581 0 6.64-5.071 13.808-13.263 13.808-1.547 0-3.673-.293-5.612-1.554l-5.66 27.293c-.672 3.232-3.461 5.544-6.696 5.544H52.11v.005z"
      fill="url(#paint4_linear)"/>
    <path
      d="M98.998 75.155c-10.768 0-24.545-8.079-24.545-18.268 0-2.07-2.816-9.054 0-13.107 2.282-3.286 10.143-3.212 11.27-8.417l.606-2.782a7.12 7.12 0 01-1.575-5.989l.685-3.493a6.943 6.943 0 011.341-2.962 6.985 6.985 0 012.546-2.034l1.528-7.175c.61-2.877 2.919-5.053 5.772-5.444l12.665-1.749a6.796 6.796 0 013.25.36 6.77 6.77 0 012.701 1.835 7.082 7.082 0 011.647 6.24c-.438 2.032-.872 4.065-1.3 6.1a6.845 6.845 0 012.132 1.768 7.113 7.113 0 011.421 5.802l-.685 3.497c-.61 3.137-3.229 5.433-6.327 5.609a1807.725 1807.725 0 00-3.081 14.77l.321-.288c.947-.848 1.863-1.666 2.719-2.366a6.77 6.77 0 014.278-1.534h2.908c2.769 0 5.265 1.705 6.324 4.318a7.108 7.108 0 01-1.484 7.618c-.541.555-1.198 1.262-1.949 2.066C114.509 67.76 106.971 75.155 99 75.155h-.002z"
      fill="#fff"/>
    <path
      d="M98.998 75.155c-10.768 0-24.545-8.079-24.545-18.268 0-2.07-2.816-9.054 0-13.107 2.282-3.286 10.143-3.212 11.27-8.417l.606-2.782a7.12 7.12 0 01-1.575-5.989l.685-3.493a6.943 6.943 0 011.341-2.962 6.985 6.985 0 012.546-2.034l1.528-7.175c.61-2.877 2.919-5.053 5.772-5.444l12.665-1.749a6.796 6.796 0 013.25.36 6.77 6.77 0 012.701 1.835 7.082 7.082 0 011.647 6.24c-.438 2.032-.872 4.065-1.3 6.1a6.845 6.845 0 012.132 1.768 7.113 7.113 0 011.421 5.802l-.685 3.497c-.61 3.137-3.229 5.433-6.327 5.609a1807.725 1807.725 0 00-3.081 14.77l.321-.288c.947-.848 1.863-1.666 2.719-2.366a6.77 6.77 0 014.278-1.534h2.908c2.769 0 5.265 1.705 6.324 4.318a7.108 7.108 0 01-1.484 7.618c-.541.555-1.198 1.262-1.949 2.066C114.509 67.76 106.971 75.155 99 75.155h-.002z"
      fill="url(#paint5_linear)"/>
    <path
      d="M148.881 75.155c-7.541 0-13.196-3.213-15.856-8.611l-.636 3.067c-.671 3.234-3.462 5.544-6.697 5.544h-12.32a6.799 6.799 0 01-5.321-2.595 7.108 7.108 0 01-1.374-5.856l3.316-25.109 7.809-34.605c.604-2.885 4.197-4.785 7.06-5.182L137.526.062a6.81 6.81 0 015.939 2.178 7.099 7.099 0 011.673 6.217l-2.449 11.66c3.548-2.64 4.259-2.64 5.851-2.64h9.239c3.01 0 5.666 2.008 6.546 4.945.88 2.942-.222 6.123-2.717 7.838l-6.908 4.765c2.874 3.244 4.706 7.522 4.706 11.989 0 .346-.011.697-.035 1.047.371-.343.75-.678 1.147-1.001a6.77 6.77 0 014.278-1.534h2.907c2.767 0 5.264 1.706 6.324 4.318a7.096 7.096 0 01-1.484 7.618c-.676.689-1.661 1.836-2.708 3.05-5.311 6.181-12.593 14.643-20.954 14.643z"
      fill="#fff"/>
    <path
      d="M148.881 75.155c-7.541 0-13.196-3.213-15.856-8.611l-.636 3.067c-.671 3.234-3.462 5.544-6.697 5.544h-12.32a6.799 6.799 0 01-5.321-2.595 7.108 7.108 0 01-1.374-5.856l3.316-25.109 7.809-34.605c.604-2.885 4.197-4.785 7.06-5.182L137.526.062a6.81 6.81 0 015.939 2.178 7.099 7.099 0 011.673 6.217l-2.449 11.66c3.548-2.64 4.259-2.64 5.851-2.64h9.239c3.01 0 5.666 2.008 6.546 4.945.88 2.942-.222 6.123-2.717 7.838l-6.908 4.765c2.874 3.244 4.706 7.522 4.706 11.989 0 .346-.011.697-.035 1.047.371-.343.75-.678 1.147-1.001a6.77 6.77 0 014.278-1.534h2.907c2.767 0 5.264 1.706 6.324 4.318a7.096 7.096 0 01-1.484 7.618c-.676.689-1.661 1.836-2.708 3.05-5.311 6.181-12.593 14.643-20.954 14.643z"
      fill="url(#paint6_linear)"/>
    <path
      d="M174.639 75.677c-13.231 0-19.938-11.92-19.938-26.07 0-6.457-1.252-10.45 0-14.58 3.352-11.078 14.984-17.55 25.386-17.55 7.935 0 17.513 3.37 19.897 10.812 1.04-.72 2.151-1.33 3.316-1.822a6.701 6.701 0 015.848.34 6.984 6.984 0 013.448 4.834l.34 1.838a7.1 7.1 0 01-1.366 5.65c-2.741 3.52-6.685 6.487-11.196 8.49-3.289 19.24-15.29 28.058-25.737 28.058h.002zm70.247-.522c-10.767 0-17.455-6.33-17.455-16.52 0-3.747 1.656-11.647 4.181-23.272l.604-2.782a7.106 7.106 0 01-1.575-5.989l.687-3.493a6.95 6.95 0 013.886-4.996l1.528-7.175c.611-2.877 2.917-5.053 5.772-5.444l12.664-1.749a6.796 6.796 0 013.25.36 6.77 6.77 0 012.701 1.835 7.1 7.1 0 011.649 6.24c-.439 2.032-.872 4.065-1.301 6.1a6.856 6.856 0 012.132 1.768 7.096 7.096 0 011.42 5.801l-.683 3.498c-.612 3.137-3.229 5.433-6.327 5.609a1744.476 1744.476 0 00-3.083 14.769l.323-.287a84.982 84.982 0 012.716-2.366 6.77 6.77 0 014.278-1.534h2.911c2.768 0 5.263 1.705 6.322 4.318a7.095 7.095 0 01-1.482 7.618c-.542.555-1.199 1.262-1.949 2.066-7.659 8.231-15.198 15.625-23.169 15.625zm-227.43.522C7.013 75.677 0 68.409 0 57.587c0-24.31 11.489-40.022 29.265-40.022 1.202 0 2.415.157 3.605.454a6.736 6.736 0 012.64-.54h12.32a6.805 6.805 0 012.957.686 6.774 6.774 0 012.36 1.901 7.116 7.116 0 011.38 5.851l-4.93 23.786.307-.277c.947-.848 1.863-1.665 2.719-2.366a6.77 6.77 0 014.278-1.534h2.908c2.769 0 5.265 1.706 6.324 4.318a7.097 7.097 0 01-1.483 7.618c-.542.555-1.2 1.262-1.95 2.066-7.659 8.233-15.197 15.628-23.17 15.628-5.037 0-8.625-1.305-11.171-3.094-4.01 2.866-7.914 3.615-10.904 3.615z"
      fill="#fff"/>
    <path
      d="M174.639 75.677c-13.231 0-19.938-11.92-19.938-26.07 0-6.457-1.252-10.45 0-14.58 3.352-11.078 14.984-17.55 25.386-17.55 7.935 0 17.513 3.37 19.897 10.812 1.04-.72 2.151-1.33 3.316-1.822a6.701 6.701 0 015.848.34 6.984 6.984 0 013.448 4.834l.34 1.838a7.1 7.1 0 01-1.366 5.65c-2.741 3.52-6.685 6.487-11.196 8.49-3.289 19.24-15.29 28.058-25.737 28.058h.002zm70.247-.522c-10.767 0-17.455-6.33-17.455-16.52 0-3.747 1.656-11.647 4.181-23.272l.604-2.782a7.106 7.106 0 01-1.575-5.989l.687-3.493a6.95 6.95 0 013.886-4.996l1.528-7.175c.611-2.877 2.917-5.053 5.772-5.444l12.664-1.749a6.796 6.796 0 013.25.36 6.77 6.77 0 012.701 1.835 7.1 7.1 0 011.649 6.24c-.439 2.032-.872 4.065-1.301 6.1a6.856 6.856 0 012.132 1.768 7.096 7.096 0 011.42 5.801l-.683 3.498c-.612 3.137-3.229 5.433-6.327 5.609a1744.476 1744.476 0 00-3.083 14.769l.323-.287a84.982 84.982 0 012.716-2.366 6.77 6.77 0 014.278-1.534h2.911c2.768 0 5.263 1.705 6.322 4.318a7.095 7.095 0 01-1.482 7.618c-.542.555-1.199 1.262-1.949 2.066-7.659 8.231-15.198 15.625-23.169 15.625zm-227.43.522C7.013 75.677 0 68.409 0 57.587c0-24.31 11.489-40.022 29.265-40.022 1.202 0 2.415.157 3.605.454a6.736 6.736 0 012.64-.54h12.32a6.805 6.805 0 012.957.686 6.774 6.774 0 012.36 1.901 7.116 7.116 0 011.38 5.851l-4.93 23.786.307-.277c.947-.848 1.863-1.665 2.719-2.366a6.77 6.77 0 014.278-1.534h2.908c2.769 0 5.265 1.706 6.324 4.318a7.097 7.097 0 01-1.483 7.618c-.542.555-1.2 1.262-1.95 2.066-7.659 8.233-15.197 15.628-23.17 15.628-5.037 0-8.625-1.305-11.171-3.094-4.01 2.866-7.914 3.615-10.904 3.615z"
      fill="url(#paint7_linear)"/>
    <path
      d="M35.507 24.47l-.512 2.27c-1.539-1.31-3.678-2.185-5.734-2.185-17.112 0-22.42 18.004-22.42 33.033 0 5.159 2.398 11.1 10.61 11.1 5.22 0 9.07-3.583 11.638-7.168 1.112 4.545 4.878 6.643 10.44 6.643 6.672 0 16.344-11.621 20.278-15.643H56.9c-3.424 2.799-7.874 7.692-11.295 7.692-3.42 0-4.278-1.397-4.278-3.322 0-.785.172-1.746.343-2.706l6.158-29.711h-12.32v-.004zm-5.561 4.98c1.197 0 2.824.349 4.192 1.575l-4.79 23.157a20.464 20.464 0 00-.515 2.885c-1.625 2.442-3.508 4.367-5.475 4.367-2.139 0-4.963-.961-4.963-6.204 0-11.885 5.134-25.778 11.551-25.778v-.002z"
      fill="#D7380F"/>
    <path
      d="M35.507 24.47l-.512 2.27c-1.539-1.31-3.678-2.185-5.734-2.185-17.112 0-22.42 18.004-22.42 33.033 0 5.159 2.398 11.1 10.61 11.1 5.22 0 9.07-3.583 11.638-7.168 1.112 4.545 4.878 6.643 10.44 6.643 6.672 0 16.344-11.621 20.278-15.643H56.9c-3.424 2.799-7.874 7.692-11.295 7.692-3.42 0-4.278-1.397-4.278-3.322 0-.785.172-1.746.343-2.706l6.158-29.711h-12.32v-.004zm-5.561 4.98c1.197 0 2.824.349 4.192 1.575l-4.79 23.157a20.464 20.464 0 00-.515 2.885c-1.625 2.442-3.508 4.367-5.475 4.367-2.139 0-4.963-.961-4.963-6.204 0-11.885 5.134-25.778 11.551-25.778v-.002z"
      fill="url(#paint8_linear)"/>
    <path
      d="M61.177 24.47l-9.07 43.693H64.43l7.102-34.255c1.966-1.837 3.334-2.8 5.9-2.8 2.57 0 .173 5.77 4.964 5.77 4.191 0 6.417-3.758 6.417-6.817 0-3.321-2.31-5.592-6.159-5.592-3.596 0-7.02 1.924-10.098 4.371l.942-4.37h-12.32zm36.365-12.058l-2.567 12.057h-2.822l-.685 3.497h2.824c-1.456 7.514-5.903 26.04-5.903 30.67 0 6.554 4.02 9.527 10.609 9.527 6.672 0 16.342-11.621 20.279-15.643h-2.909c-3.422 2.799-7.872 7.69-11.295 7.69-3.422 0-4.278-1.31-4.278-3.321 0-.437-.086-1.31 5.819-28.923h5.133l.683-3.497h-5.135c1.625-7.865 2.908-13.807 2.908-13.807l-12.661 1.75z"
      fill="#D7380F"/>
    <path
      d="M61.177 24.47l-9.07 43.693H64.43l7.102-34.255c1.966-1.837 3.334-2.8 5.9-2.8 2.57 0 .173 5.77 4.964 5.77 4.191 0 6.417-3.758 6.417-6.817 0-3.321-2.31-5.592-6.159-5.592-3.596 0-7.02 1.924-10.098 4.371l.942-4.37h-12.32zm36.365-12.058l-2.567 12.057h-2.822l-.685 3.497h2.824c-1.456 7.514-5.903 26.04-5.903 30.67 0 6.554 4.02 9.527 10.609 9.527 6.672 0 16.342-11.621 20.279-15.643h-2.909c-3.422 2.799-7.872 7.69-11.295 7.69-3.422 0-4.278-1.31-4.278-3.321 0-.437-.086-1.31 5.819-28.923h5.133l.683-3.497h-5.135c1.625-7.865 2.908-13.807 2.908-13.807l-12.661 1.75z"
      fill="url(#paint9_linear)"/>
    <path
      d="M148.54 24.47c0-.088-10.097 7.865-16.514 13.108l6.417-30.587L125.78 8.74l-12.406 59.423h12.32l4.88-23.507c1.796-1.223 3.334-1.924 5.473-1.924 2.312 0 3.938 2.01 3.938 5.157 0 .696-.086 1.486-.257 2.27l-.94 4.023a18.661 18.661 0 00-.602 4.632c0 6.375 4.108 9.35 10.695 9.35 6.676 0 14.89-11.622 18.825-15.645H164.8c-3.423 2.8-6.417 7.691-9.842 7.691-3.336 0-4.278-1.31-4.278-3.234 0-.874.173-1.837.428-2.796l1.197-4.98a9.444 9.444 0 00.257-2.186c0-5.77-5.306-10.837-9.925-10.837-.771 0-1.458.09-2.225.263l17.367-11.974-9.239.003z"
      fill="#723014"/>
    <path
      d="M148.54 24.47c0-.088-10.097 7.865-16.514 13.108l6.417-30.587L125.78 8.74l-12.406 59.423h12.32l4.88-23.507c1.796-1.223 3.334-1.924 5.473-1.924 2.312 0 3.938 2.01 3.938 5.157 0 .696-.086 1.486-.257 2.27l-.94 4.023a18.661 18.661 0 00-.602 4.632c0 6.375 4.108 9.35 10.695 9.35 6.676 0 14.89-11.622 18.825-15.645H164.8c-3.423 2.8-6.417 7.691-9.842 7.691-3.336 0-4.278-1.31-4.278-3.234 0-.874.173-1.837.428-2.796l1.197-4.98a9.444 9.444 0 00.257-2.186c0-5.77-5.306-10.837-9.925-10.837-.771 0-1.458.09-2.225.263l17.367-11.974-9.239.003z"
      fill="url(#paint10_linear)"/>
    <path
      d="M184.049 23.597c-11.808 0-22.503 9.26-22.503 30.758 0 10.4 3.937 14.332 13.093 14.332 8.556 0 17.88-8.65 19.506-26.216 4.961-1.398 9.412-4.281 12.063-7.687l-.34-1.838c-3.167 1.31-4.962 4.282-8.983 4.282-1.199 0-1.969-.26-2.483-.785-.172-6.382-2.225-12.846-10.353-12.846zm-5.391 36.613c-3.336 0-5.732-1.396-5.732-6.64 0-6.99 3.422-24.82 11.464-24.82 2.396 0 3.337 1.663 3.595 4.545-2.311.874-3.764 3.584-3.764 6.117 0 2.1 1.111 3.933 3.594 3.933-1.027 8.477-3.937 16.865-9.157 16.865zm33.2-34.867c-1.456 6.64-3.423 14.42-6.504 20.1-3.424.262-6.503 4.28-6.503 11.272 0 8.563 4.79 11.448 14.632 11.448 7.957 0 12.834-3.32 15.059-8.126 3.424-2.97 6.846-6.029 9.241-7.954l-2.226-2.97c-1.026 1.222-3.165 3.496-5.561 5.68.086-.611.086-1.22.086-1.837 0-10.224-5.816-14.593-5.816-29.012v-1.221l-12.408 2.62zm.086 25.43c0-2.623-.771-4.19-2.824-4.893 1.884-4.369 3.081-9.964 4.451-14.244.172 10.923 4.022 15.555 4.022 20.973 0 6.729-4.192 10.397-7.102 10.397-4.533 0-7.274-2.27-7.274-7.428 1.03.526 2.053.79 3.083.79 2.991 0 5.644-2.275 5.644-5.595z"
      fill="#723014"/>
    <path
      d="M184.049 23.597c-11.808 0-22.503 9.26-22.503 30.758 0 10.4 3.937 14.332 13.093 14.332 8.556 0 17.88-8.65 19.506-26.216 4.961-1.398 9.412-4.281 12.063-7.687l-.34-1.838c-3.167 1.31-4.962 4.282-8.983 4.282-1.199 0-1.969-.26-2.483-.785-.172-6.382-2.225-12.846-10.353-12.846zm-5.391 36.613c-3.336 0-5.732-1.396-5.732-6.64 0-6.99 3.422-24.82 11.464-24.82 2.396 0 3.337 1.663 3.595 4.545-2.311.874-3.764 3.584-3.764 6.117 0 2.1 1.111 3.933 3.594 3.933-1.027 8.477-3.937 16.865-9.157 16.865zm33.2-34.867c-1.456 6.64-3.423 14.42-6.504 20.1-3.424.262-6.503 4.28-6.503 11.272 0 8.563 4.79 11.448 14.632 11.448 7.957 0 12.834-3.32 15.059-8.126 3.424-2.97 6.846-6.029 9.241-7.954l-2.226-2.97c-1.026 1.222-3.165 3.496-5.561 5.68.086-.611.086-1.22.086-1.837 0-10.224-5.816-14.593-5.816-29.012v-1.221l-12.408 2.62zm.086 25.43c0-2.623-.771-4.19-2.824-4.893 1.884-4.369 3.081-9.964 4.451-14.244.172 10.923 4.022 15.555 4.022 20.973 0 6.729-4.192 10.397-7.102 10.397-4.533 0-7.274-2.27-7.274-7.428 1.03.526 2.053.79 3.083.79 2.991 0 5.644-2.275 5.644-5.595z"
      fill="url(#paint11_linear)"/>
    <path
      d="M243.43 12.412l-2.567 12.057h-2.822l-.684 3.497h2.823c-1.456 7.514-5.904 26.04-5.904 30.67 0 6.554 4.021 9.527 10.608 9.527 6.674 0 16.345-11.621 20.281-15.643h-2.91c-3.422 2.799-7.871 7.69-11.293 7.69-3.423 0-4.278-1.31-4.278-3.321 0-.437-.087-1.31 5.818-28.923h5.134l.683-3.497h-5.136c1.627-7.865 2.911-13.807 2.911-13.807l-12.664 1.75z"
      fill="#723014"/>
    <path
      d="M243.43 12.412l-2.567 12.057h-2.822l-.684 3.497h2.823c-1.456 7.514-5.904 26.04-5.904 30.67 0 6.554 4.021 9.527 10.608 9.527 6.674 0 16.345-11.621 20.281-15.643h-2.91c-3.422 2.799-7.871 7.69-11.293 7.69-3.423 0-4.278-1.31-4.278-3.321 0-.437-.087-1.31 5.818-28.923h5.134l.683-3.497h-5.136c1.627-7.865 2.911-13.807 2.911-13.807l-12.664 1.75z"
      fill="url(#paint12_linear)"/>
  </g>
  <defs>
    <linearGradient id="paint0_linear" x1="148.938" y1="17.304" x2="148.938" y2="76.726" gradientUnits="userSpaceOnUse">
      <stop stop-color="#4F4F4F"/>
    </linearGradient>
    <linearGradient id="paint1_linear" x1="107.825" y1="6.976" x2="107.825" y2="76.726" gradientUnits="userSpaceOnUse">
      <stop stop-color="#4F4F4F"/>
    </linearGradient>
    <linearGradient id="paint2_linear" x1="144.53" y1="1.577" x2="144.53" y2="76.726" gradientUnits="userSpaceOnUse">
      <stop stop-color="#4F4F4F"/>
    </linearGradient>
    <linearGradient id="paint3_linear" x1="140.854" y1="5.25" x2="140.854" y2="79" gradientUnits="userSpaceOnUse">
      <stop stop-color="#4F4F4F"/>
    </linearGradient>
    <linearGradient id="paint4_linear" x1="144.946" y1="15.733" x2="144.946" y2="75.155" gradientUnits="userSpaceOnUse">
      <stop stop-color="#1F1E55"/>
    </linearGradient>
    <linearGradient id="paint5_linear" x1="99.661" y1="3.676" x2="99.661" y2="75.155" gradientUnits="userSpaceOnUse">
      <stop stop-color="#1F1E55"/>
    </linearGradient>
    <linearGradient id="paint6_linear" x1="140.538" y1=".003" x2="140.538" y2="75.155" gradientUnits="userSpaceOnUse">
      <stop stop-color="#1F1E55"/>
    </linearGradient>
    <linearGradient id="paint7_linear" x1="136.004" y1="3.676" x2="136.004" y2="75.677" gradientUnits="userSpaceOnUse">
      <stop stop-color="#1F1E55"/>
    </linearGradient>
    <linearGradient id="paint8_linear" x1="33.324" y1="24.469" x2="33.324" y2="68.687" gradientUnits="userSpaceOnUse">
      <stop stop-color="#C042FF"/>
    </linearGradient>
    <linearGradient id="paint9_linear" x1="85.692" y1="10.662" x2="85.692" y2="68.163" gradientUnits="userSpaceOnUse">
      <stop stop-color="#C042FF"/>
    </linearGradient>
    <linearGradient id="paint10_linear" x1="140.54" y1="6.991" x2="140.54" y2="68.163" gradientUnits="userSpaceOnUse">
      <stop stop-color="#F000EC"/>
    </linearGradient>
    <linearGradient id="paint11_linear" x1="199.664" y1="22.723" x2="199.664" y2="68.687"
                    gradientUnits="userSpaceOnUse">
      <stop stop-color="#F000EC"/>
    </linearGradient>
    <linearGradient id="paint12_linear" x1="249.72" y1="10.662" x2="249.72" y2="68.163" gradientUnits="userSpaceOnUse">
      <stop stop-color="#F000EC"/>
    </linearGradient>
    <clipPath id="clip0">
      <path fill="#fff" d="M0 0h276v79H0z"/>
    </clipPath>
  </defs>
</svg>
